<mxfile host="65bd71144e">
    <diagram id="QztMI3m1-U9BuAnar2Cz" name="Page-1">
        <mxGraphModel dx="1141" dy="1870" grid="1" gridSize="10" guides="1" tooltips="1" connect="1" arrows="1" fold="1" page="1" pageScale="1" pageWidth="850" pageHeight="1100" math="0" shadow="0">
            <root>
                <mxCell id="0"/>
                <mxCell id="1" parent="0"/>
                <mxCell id="2" value="" style="rounded=1;whiteSpace=wrap;html=1;fillColor=#f0a30a;strokeColor=#BD7000;fontColor=#000000;shadow=1;" vertex="1" parent="1">
                    <mxGeometry x="120" y="80" width="70" height="60" as="geometry"/>
                </mxCell>
                <mxCell id="14" value="" style="endArrow=open;html=1;endFill=0;endSize=19;strokeColor=#000000;" edge="1" parent="1">
                    <mxGeometry width="50" height="50" relative="1" as="geometry">
                        <mxPoint x="90" y="380" as="sourcePoint"/>
                        <mxPoint x="90" y="90" as="targetPoint"/>
                    </mxGeometry>
                </mxCell>
                <mxCell id="15" value="Priority" style="text;html=1;strokeColor=none;fillColor=none;align=center;verticalAlign=middle;whiteSpace=wrap;rounded=0;shadow=1;fontSize=25;fontColor=#000000;" vertex="1" parent="1">
                    <mxGeometry y="230" width="80" height="40" as="geometry"/>
                </mxCell>
                <mxCell id="16" value="" style="rounded=1;whiteSpace=wrap;html=1;fillColor=#f0a30a;strokeColor=#BD7000;fontColor=#000000;shadow=1;" vertex="1" parent="1">
                    <mxGeometry x="210" y="80" width="70" height="60" as="geometry"/>
                </mxCell>
                <mxCell id="17" value="" style="rounded=1;whiteSpace=wrap;html=1;fillColor=#f0a30a;strokeColor=#BD7000;fontColor=#000000;shadow=1;" vertex="1" parent="1">
                    <mxGeometry x="300" y="80" width="70" height="60" as="geometry"/>
                </mxCell>
                <mxCell id="18" value="" style="rounded=1;whiteSpace=wrap;html=1;fillColor=#f0a30a;strokeColor=#BD7000;fontColor=#000000;shadow=1;" vertex="1" parent="1">
                    <mxGeometry x="390" y="80" width="70" height="60" as="geometry"/>
                </mxCell>
                <mxCell id="19" value="" style="rounded=1;whiteSpace=wrap;html=1;fillColor=#f0a30a;strokeColor=#BD7000;fontColor=#000000;shadow=1;" vertex="1" parent="1">
                    <mxGeometry x="480" y="80" width="70" height="60" as="geometry"/>
                </mxCell>
                <mxCell id="21" value="" style="rounded=1;whiteSpace=wrap;html=1;fillColor=#f0a30a;strokeColor=#BD7000;fontColor=#000000;shadow=1;" vertex="1" parent="1">
                    <mxGeometry x="120" y="160" width="70" height="60" as="geometry"/>
                </mxCell>
                <mxCell id="22" value="" style="rounded=1;whiteSpace=wrap;html=1;fillColor=#f0a30a;strokeColor=#BD7000;fontColor=#000000;shadow=1;" vertex="1" parent="1">
                    <mxGeometry x="210" y="160" width="70" height="60" as="geometry"/>
                </mxCell>
                <mxCell id="24" value="" style="rounded=1;whiteSpace=wrap;html=1;fillColor=#f0a30a;strokeColor=#BD7000;fontColor=#000000;shadow=1;" vertex="1" parent="1">
                    <mxGeometry x="120" y="320" width="70" height="60" as="geometry"/>
                </mxCell>
                <mxCell id="25" value="" style="rounded=1;whiteSpace=wrap;html=1;fillColor=#f0a30a;strokeColor=#BD7000;fontColor=#000000;shadow=1;" vertex="1" parent="1">
                    <mxGeometry x="210" y="320" width="70" height="60" as="geometry"/>
                </mxCell>
                <mxCell id="26" value="" style="rounded=1;whiteSpace=wrap;html=1;fillColor=#f0a30a;strokeColor=#BD7000;fontColor=#000000;shadow=1;" vertex="1" parent="1">
                    <mxGeometry x="300" y="320" width="70" height="60" as="geometry"/>
                </mxCell>
                <mxCell id="27" value="" style="rounded=1;whiteSpace=wrap;html=1;fillColor=#f0a30a;strokeColor=#BD7000;fontColor=#000000;shadow=1;" vertex="1" parent="1">
                    <mxGeometry x="120" y="240" width="70" height="60" as="geometry"/>
                </mxCell>
                <mxCell id="28" value="" style="verticalLabelPosition=bottom;shadow=0;dashed=0;align=center;html=1;verticalAlign=top;strokeWidth=1;shape=mxgraph.mockup.markup.curlyBrace;fontSize=25;fillColor=none;strokeColor=#000000;" vertex="1" parent="1">
                    <mxGeometry x="130" y="40" width="420" height="30" as="geometry"/>
                </mxCell>
                <mxCell id="30" value="Runnable Processes" style="text;html=1;strokeColor=none;fillColor=none;align=center;verticalAlign=middle;whiteSpace=wrap;rounded=0;shadow=1;fontSize=25;fontColor=#000000;" vertex="1" parent="1">
                    <mxGeometry x="210" width="260" height="40" as="geometry"/>
                </mxCell>
            </root>
        </mxGraphModel>
    </diagram>
</mxfile>